grf
version=1
nRows=9
nColumns=37
inDegrees=no
endheader
time	ground_force_1_vx	ground_force_1_vy	ground_force_1_vz	ground_force_1_px	ground_force_1_py	ground_force_1_pz	ground_moment_1_mx	ground_moment_1_my	ground_moment_1_mz	ground_force_2_vx	ground_force_2_vy	ground_force_2_vz	ground_force_2_px	ground_force_2_py	ground_force_2_pz	ground_moment_2_mx	ground_moment_2_my	ground_moment_2_mz	ground_force_3_vx	ground_force_3_vy	ground_force_3_vz	ground_force_3_px	ground_force_3_py	ground_force_3_pz	ground_moment_3_mx	ground_moment_3_my	ground_moment_3_mz	ground_force_4_vx	ground_force_4_vy	ground_force_4_vz	ground_force_4_px	ground_force_4_py	ground_force_4_pz	ground_moment_4_mx	ground_moment_4_my	ground_moment_4_mz
      5.89000000	      0.00000000	     -0.00000000	      0.00000000	      0.00000000	      0.00000000	      0.00000000	      0.00000000	      0.00000000	      0.00000000	     -5.44887352	     37.96453094	   -408.61331177	   -247.68401997	  -1134.56634665	      0.00000000	      0.00000000	      0.00000000	   5990.46723114	      6.56546997	    -35.59190045	   -402.56149292	   -259.24548341	   -676.99187712	      0.00000000	      0.00000000	     -0.00000000	  -2772.06989130	      0.00000000	     -0.00000000	      0.00000000	      0.00000000	      0.00000000	      0.00000000	      0.00000000	      0.00000000	      0.00000000
      5.90000000	      0.00000000	     -0.00000000	      0.00000000	      0.00000000	      0.00000000	      0.00000000	      0.00000000	      0.00000000	      0.00000000	     -4.28751612	     37.70216370	   -407.54821777	   -248.09340224	  -1134.20048044	      0.00000000	      0.00000000	      0.00000000	   6269.28709048	      6.74106427	    -35.85765516	   -404.31005859	   -258.82382154	   -677.68256951	      0.00000000	      0.00000000	     -0.00000000	  -2940.70393205	      0.00000000	     -0.00000000	      0.00000000	      0.00000000	      0.00000000	      0.00000000	      0.00000000	      0.00000000	      0.00000000
      5.91000000	      0.00000000	     -0.00000000	      0.00000000	      0.00000000	      0.00000000	      0.00000000	      0.00000000	      0.00000000	      0.00000000	     -4.45709896	     37.61188889	   -406.51464844	   -248.42419001	  -1134.48998609	      0.00000000	      0.00000000	      0.00000000	   6276.44621374	      5.85794460	    -36.91745809	   -407.43206787	   -259.68386160	   -676.42248846	      0.00000000	      0.00000000	     -0.00000000	  -3075.23883637	      0.00000000	     -0.00000000	      0.00000000	      0.00000000	      0.00000000	      0.00000000	      0.00000000	      0.00000000	      0.00000000
      5.92000000	      0.00000000	     -0.00000000	      0.00000000	      0.00000000	      0.00000000	      0.00000000	      0.00000000	      0.00000000	      0.00000000	     -4.46293020	     38.49592590	   -407.92761230	   -248.87789755	  -1134.45951319	      0.00000000	      0.00000000	      0.00000000	   6134.45674571	      5.41349797	    -37.71123170	   -408.87344360	   -260.03415585	   -677.82024933	      0.00000000	      0.00000000	     -0.00000000	  -3142.16131359	      0.00000000	     -0.00000000	      0.00000000	      0.00000000	      0.00000000	      0.00000000	      0.00000000	      0.00000000	      0.00000000
      5.93000000	      0.00000000	     -0.00000000	      0.00000000	      0.00000000	      0.00000000	      0.00000000	      0.00000000	      0.00000000	      0.00000000	     -4.72559690	     37.97082901	   -406.84808350	   -248.79196087	  -1134.29284516	      0.00000000	      0.00000000	      0.00000000	   6068.72272039	      6.03347923	    -37.98175865	   -413.72207642	   -260.82783312	   -677.26711638	      0.00000000	      0.00000000	     -0.00000000	  -3300.87289655	      0.00000000	     -0.00000000	      0.00000000	      0.00000000	      0.00000000	      0.00000000	      0.00000000	      0.00000000	      0.00000000
      5.94000000	      0.00000000	     -0.00000000	      0.00000000	      0.00000000	      0.00000000	      0.00000000	      0.00000000	      0.00000000	      0.00000000	     -4.72014856	     37.88175964	   -404.74420166	   -248.83968266	  -1134.99837257	      0.00000000	      0.00000000	      0.00000000	   6024.05461056	      7.27067089	    -38.24329440	   -416.87280273	   -261.51949000	   -677.02758679	      0.00000000	      0.00000000	     -0.00000000	  -3477.07754527	      0.00000000	     -0.00000000	      0.00000000	      0.00000000	      0.00000000	      0.00000000	      0.00000000	      0.00000000	      0.00000000
      5.95000000	      0.00000000	     -0.00000000	      0.00000000	      0.00000000	      0.00000000	      0.00000000	      0.00000000	      0.00000000	      0.00000000	     -4.72955227	     37.17016983	   -402.28854370	   -249.10161808	  -1133.96253058	      0.00000000	      0.00000000	      0.00000000	   6089.26664731	      7.62786053	    -38.41867895	   -416.55780029	   -261.44298095	   -678.15762248	      0.00000000	      0.00000000	     -0.00000000	  -3526.42247132	      0.00000000	     -0.00000000	      0.00000000	      0.00000000	      0.00000000	      0.00000000	      0.00000000	      0.00000000	      0.00000000
      5.96000000	      0.00000000	     -0.00000000	      0.00000000	      0.00000000	      0.00000000	      0.00000000	      0.00000000	      0.00000000	      0.00000000	     -4.99578857	     37.25503540	   -399.79968262	   -248.68656331	  -1133.60681451	      0.00000000	      0.00000000	      0.00000000	   5836.00887143	      7.19495482	    -38.77722994	   -418.64337158	   -261.00436261	   -677.39417459	      0.00000000	     -0.00000000	     -0.00000000	  -3362.95729206	      0.00000000	     -0.00000000	      0.00000000	      0.00000000	      0.00000000	      0.00000000	      0.00000000	      0.00000000	      0.00000000
      5.97000000	      0.00000000	     -0.00000000	      0.00000000	      0.00000000	      0.00000000	      0.00000000	      0.00000000	      0.00000000	      0.00000000	     -5.26955318	     37.34564209	   -397.66238403	   -248.74163548	  -1132.94644806	      0.00000000	      0.00000000	      0.00000000	   6058.97945666	      8.06847613	    -38.94847177	   -419.99081421	   -261.41842590	   -676.53235740	      0.00000000	      0.00000000	      0.00000000	  -3564.01775455	      0.00000000	     -0.00000000	      0.00000000	      0.00000000	      0.00000000	      0.00000000	      0.00000000	      0.00000000	      0.00000000
